<svg version="1.1" viewBox="0.0 0.0 1000.0 1000.0" fill="none" stroke="none" stroke-linecap="square" stroke-miterlimit="10" xmlns:xlink="http://www.w3.org/1999/xlink" xmlns="http://www.w3.org/2000/svg"><clipPath id="p.0"><path d="m0 0l1000.0 0l0 1000.0l-1000.0 0l0 -1000.0z" clip-rule="nonzero"/></clipPath><g clip-path="url(#p.0)"><path fill="#000000" fill-opacity="0.0" d="m0 0l1000.0 0l0 1000.0l-1000.0 0z" fill-rule="evenodd"/><path fill="#f0c721" d="m0 932.4688l500.0 -864.9449l500.0 864.9449z" fill-rule="evenodd"/><path stroke="#f0c721" stroke-width="1.0" stroke-linejoin="round" stroke-linecap="butt" d="m0 932.4688l500.0 -864.9449l500.0 864.9449z" fill-rule="evenodd"/><path fill="#284474" d="m56.428528 893.2302l442.07874 -764.72437l442.07874 764.72437z" fill-rule="evenodd"/><path stroke="#284474" stroke-width="1.0" stroke-linejoin="round" stroke-linecap="butt" d="m56.428528 893.2302l442.07874 -764.72437l442.07874 764.72437z" fill-rule="evenodd"/><path fill="#f0c721" d="m396.52695 885.4514l-40.006195 -42.62982l-16.39679 -49.190308l-15.738586 -66.23926l-1.313324 -62.96051l23.612457 -62.9635l55.744812 -73.45184l43.943115 -49.84552l32.135376 -53.779358l-3.2787476 -41.31952l-15.083435 -24.919739l5.9023438 -21.643982l40.661346 28.856628l47.221893 62.30536l24.92273 68.2077l9.836243 67.55255l-1.9684448 66.2392l20.33368 -41.316467l5.2442017 -39.351074l31.483276 45.90857l18.362183 64.2738l11.804749 63.61566l-23.609436 83.29419l-26.891235 59.02655l-24.919678 26.888184l-53.124268 -0.8522949l0 41.31952l-85.25958 0l0 -42.632812l-57.058136 0z" fill-rule="evenodd"/><path stroke="#f0c721" stroke-width="1.0" stroke-linejoin="round" stroke-linecap="butt" d="m396.52695 885.4514l-40.006195 -42.62982l-16.39679 -49.190308l-15.738586 -66.23926l-1.313324 -62.96051l23.612457 -62.9635l55.744812 -73.45184l43.943115 -49.84552l32.135376 -53.779358l-3.2787476 -41.31952l-15.083435 -24.919739l5.9023438 -21.643982l40.661346 28.856628l47.221893 62.30536l24.92273 68.2077l9.836243 67.55255l-1.9684448 66.2392l20.33368 -41.316467l5.2442017 -39.351074l31.483276 45.90857l18.362183 64.2738l11.804749 63.61566l-23.609436 83.29419l-26.891235 59.02655l-24.919678 26.888184l-53.124268 -0.8522949l0 41.31952l-85.25958 0l0 -42.632812l-57.058136 0z" fill-rule="evenodd"/><path fill="#ffffff" d="m465.38763 883.06683l-27.215729 -16.724304l-17.710114 -28.201538l-5.247223 -42.62976l3.2817993 -53.77942l10.491394 -40.33374l19.675537 25.250305l16.724335 25.57788l5.247223 -37.38562l-5.247223 -43.940125l8.853546 -40.661316l8.853516 -43.288025l15.741638 -7.8707886l31.80783 44.598267l13.445618 48.20459l24.595154 39.351074l13.11499 50.828186l-4.916626 40.661316l-28.532043 57.71631l-13.115051 32.790527l-70.50372 0z" fill-rule="evenodd"/><path stroke="#ffffff" stroke-width="1.0" stroke-linejoin="round" stroke-linecap="butt" d="m465.38763 883.06683l-27.215729 -16.724304l-17.710114 -28.201538l-5.247223 -42.62976l3.2817993 -53.77942l10.491394 -40.33374l19.675537 25.250305l16.724335 25.57788l5.247223 -37.38562l-5.247223 -43.940125l8.853546 -40.661316l8.853516 -43.288025l15.741638 -7.8707886l31.80783 44.598267l13.445618 48.20459l24.595154 39.351074l13.11499 50.828186l-4.916626 40.661316l-28.532043 57.71631l-13.115051 32.790527l-70.50372 0z" fill-rule="evenodd"/><path fill="#f0c721" d="m402.20776 887.404l3.3606567 11.19812l50.01535 4.1067505l5.5990295 -15.6779175z" fill-rule="evenodd"/><path stroke="#f0c721" stroke-width="1.0" stroke-linejoin="round" stroke-linecap="butt" d="m402.20776 887.404l3.3606567 11.19812l50.01535 4.1067505l5.5990295 -15.6779175z" fill-rule="evenodd"/><path fill="#ffffff" d="m465.3386 893.2192l69.322845 0l0 38.771667l-69.322845 0z" fill-rule="evenodd"/><path stroke="#ffffff" stroke-width="2.0" stroke-linejoin="round" stroke-linecap="butt" d="m465.3386 893.2192l69.322845 0l0 38.771667l-69.322845 0z" fill-rule="evenodd"/><path fill="#f0c721" d="m542.7533 887.7546l1.1312256 16.312378l44.574768 -3.876648l9.044678 -4.845154l3.5511475 -7.913391z" fill-rule="evenodd"/><path stroke="#f0c721" stroke-width="1.0" stroke-linejoin="round" stroke-linecap="butt" d="m542.7533 887.7546l1.1312256 16.312378l44.574768 -3.876648l9.044678 -4.845154l3.5511475 -7.913391z" fill-rule="evenodd"/></g></svg>